<svg xmlns="http://www.w3.org/2000/svg" viewBox="0 0 24 24"><path d="M12 7.0v3.1h-3.1v3.8h3.1v3.1h3.8v-3.1h3.1v-3.8h-3.1v-3.1z" fill="#5B879B" transform="translate(-1.9 0)"/><path d="M12 1.0000000000000004v2.108h-2.108v2.584h2.108v2.108h2.584v-2.108h2.108v-2.584h-2.108v-2.108z" fill="#7099A6" transform="translate(-1.292 0)"/><path d="M12 16.200000000000003v2.108h-2.108v2.584h2.108v2.108h2.584v-2.108h2.108v-2.584h-2.108v-2.108z" fill="#1F457E" transform="translate(-1.292 0)"/><path d="M4.4 8.6v2.108h-2.108v2.584h2.108v2.108h2.584v-2.108h2.108v-2.584h-2.108v-2.108z" fill="#EB912C" transform="translate(-1.292 0)"/><path d="M19.6 8.6v2.108h-2.108v2.584h2.108v2.108h2.584v-2.108h2.108v-2.584h-2.108v-2.108z" fill="#C72035" transform="translate(-1.292 0)"/></svg>